<?xml version="1.0" encoding="utf-8"?>
<!-- Generator: Adobe Illustrator 24.0.1, SVG Export Plug-In . SVG Version: 6.00 Build 0)  -->
<svg version="1.1" id="Layer_1" xmlns="http://www.w3.org/2000/svg" xmlns:xlink="http://www.w3.org/1999/xlink" x="0px" y="0px"
	 viewBox="0 0 236.24 224.16" style="enable-background:new 0 0 236.24 224.16;" xml:space="preserve">
<style type="text/css">
	.st0{fill:#7358FF;}
</style>
<g>
	<path class="st0" d="M66.66,149.74H48.19v-17.5h57.44c1.76,0,3.18-1.42,3.18-3.18V90.9c0-1.76-1.42-3.18-3.18-3.18
		c-1.76,0-3.18,1.42-3.18,3.18v34.98H45.01c-1.76,0-3.18,1.42-3.18,3.18v20.68H23.56c-1.76,0-3.18,1.42-3.18,3.18v57.45
		c0,1.76,1.42,3.18,3.18,3.18h43.11c1.76,0,3.18-1.42,3.18-3.18v-57.45C69.84,151.17,68.42,149.74,66.66,149.74z M63.48,207.19
		H26.74V156.1h36.75V207.19z"/>
	<path class="st0" d="M32.61,168.69c0,1.76,1.42,3.18,3.18,3.18h18.86c1.76,0,3.18-1.42,3.18-3.18c0-1.76-1.42-3.18-3.18-3.18H35.79
		C34.04,165.51,32.61,166.94,32.61,168.69z"/>
	<path class="st0" d="M54.73,179.04H35.71c-1.76,0-3.18,1.42-3.18,3.18s1.42,3.18,3.18,3.18h19.02c1.76,0,3.18-1.42,3.18-3.18
		S56.49,179.04,54.73,179.04z"/>
	<path class="st0" d="M40.67,192.56h-4.96c-1.76,0-3.18,1.42-3.18,3.18c0,1.76,1.42,3.18,3.18,3.18h4.96c1.76,0,3.18-1.42,3.18-3.18
		C43.85,193.98,42.43,192.56,40.67,192.56z"/>
	<path class="st0" d="M139.67,149.74h-19V82.42c0-1.76-1.42-3.18-3.18-3.18c-1.76,0-3.18,1.42-3.18,3.18v67.32H96.57
		c-1.76,0-3.18,1.42-3.18,3.18v57.45c0,1.76,1.42,3.18,3.18,3.18h43.11c1.76,0,3.18-1.42,3.18-3.18v-57.45
		C142.85,151.17,141.43,149.74,139.67,149.74z M136.49,207.19H99.75V156.1h36.75V207.19z"/>
	<path class="st0" d="M105.62,168.69c0,1.76,1.42,3.18,3.18,3.18h18.86c1.76,0,3.18-1.42,3.18-3.18c0-1.76-1.42-3.18-3.18-3.18
		H108.8C107.05,165.51,105.62,166.94,105.62,168.69z"/>
	<path class="st0" d="M127.74,179.04h-19.02c-1.76,0-3.18,1.42-3.18,3.18s1.42,3.18,3.18,3.18h19.02c1.76,0,3.18-1.42,3.18-3.18
		S129.5,179.04,127.74,179.04z"/>
	<path class="st0" d="M113.68,192.56h-4.96c-1.76,0-3.18,1.42-3.18,3.18c0,1.76,1.42,3.18,3.18,3.18h4.96
		c1.76,0,3.18-1.42,3.18-3.18C116.86,193.98,115.44,192.56,113.68,192.56z"/>
	<path class="st0" d="M212.68,149.74h-18.66v-20.68c0-1.76-1.42-3.18-3.18-3.18h-57.88V90.9c0-1.76-1.42-3.18-3.18-3.18
		c-1.76,0-3.18,1.42-3.18,3.18v38.16c0,1.76,1.42,3.18,3.18,3.18h57.88v17.5h-18.09c-1.76,0-3.18,1.42-3.18,3.18v57.45
		c0,1.76,1.42,3.18,3.18,3.18h43.11c1.76,0,3.18-1.42,3.18-3.18v-57.45C215.86,151.17,214.44,149.74,212.68,149.74z M209.5,207.19
		h-36.75V156.1h36.75V207.19z"/>
	<path class="st0" d="M181.81,171.87h18.86c1.76,0,3.18-1.42,3.18-3.18c0-1.76-1.42-3.18-3.18-3.18h-18.86
		c-1.76,0-3.18,1.42-3.18,3.18C178.63,170.45,180.06,171.87,181.81,171.87z"/>
	<path class="st0" d="M181.73,185.4h19.02c1.76,0,3.18-1.42,3.18-3.18s-1.42-3.18-3.18-3.18h-19.02c-1.76,0-3.18,1.42-3.18,3.18
		S179.97,185.4,181.73,185.4z"/>
	<path class="st0" d="M181.73,198.92h4.96c1.76,0,3.18-1.42,3.18-3.18c0-1.76-1.42-3.18-3.18-3.18h-4.96
		c-1.76,0-3.18,1.42-3.18,3.18C178.55,197.5,179.97,198.92,181.73,198.92z"/>
	<path class="st0" d="M69.08,112.73h22.12c1.76,0,3.18-1.42,3.18-3.18c0-1.76-1.42-3.18-3.18-3.18H69.08
		c-13.75,0-24.94-11.19-24.94-24.94c0-8.87,4.66-16.67,11.65-21.09c0.17-0.11,0.34-0.22,0.52-0.32c0.26-0.15,0.52-0.31,0.79-0.45
		c0.21-0.12,0.42-0.22,0.64-0.33c0.39-0.2,0.79-0.39,1.19-0.57c0.24-0.11,0.48-0.21,0.72-0.31c0.24-0.1,0.48-0.19,0.72-0.28
		c0.39-0.15,0.78-0.28,1.18-0.41c0.22-0.07,0.43-0.13,0.65-0.19c0.35-0.1,0.7-0.2,1.06-0.28c0.19-0.04,0.37-0.09,0.56-0.13
		c0.5-0.11,1.01-0.21,1.51-0.28c0.09-0.01,0.18-0.02,0.27-0.03c0.46-0.06,0.93-0.12,1.39-0.15c0.15-0.01,0.3-0.02,0.45-0.03
		c0.55-0.04,1.1-0.06,1.65-0.06c5.52,0,10.75,1.77,15.12,5.11c0.58,0.44,1.25,0.65,1.93,0.65c0.96,0,1.9-0.43,2.53-1.25
		c1.07-1.4,0.8-3.39-0.6-4.46c-4.14-3.16-8.89-5.2-13.95-6.01c2.07-8.87,6.91-16.93,13.87-22.95c7.89-6.83,17.99-10.6,28.44-10.6
		c10.48,0,20.6,3.78,28.5,10.65c7.03,6.12,11.89,14.31,13.9,23.31c-5.16,1.2-9.97,3.69-13.96,7.31c-1.3,1.18-1.4,3.19-0.22,4.49
		c0.63,0.69,1.49,1.04,2.36,1.04c0.76,0,1.53-0.27,2.14-0.83c3.93-3.57,8.87-5.76,14.1-6.32c0.24-0.03,0.48-0.05,0.71-0.07
		c0.65-0.05,1.29-0.09,1.95-0.09c0.44,0,0.89,0.01,1.33,0.04c0.23,0.01,0.45,0.03,0.68,0.05c0.2,0.02,0.41,0.03,0.61,0.05
		c0.29,0.03,0.58,0.07,0.87,0.11c0.13,0.02,0.26,0.03,0.38,0.05c0.32,0.05,0.64,0.11,0.96,0.17c0.09,0.02,0.18,0.03,0.27,0.05
		c0.34,0.07,0.67,0.15,1,0.23c0.07,0.02,0.14,0.03,0.21,0.05c0.34,0.09,0.69,0.19,1.02,0.29c0.05,0.02,0.1,0.03,0.16,0.05
		c0.35,0.11,0.7,0.23,1.05,0.35c0.03,0.01,0.05,0.02,0.08,0.03c9.52,3.52,16.32,12.68,16.32,23.4c0,13.75-11.19,24.94-24.94,24.94
		h-24.24c-1.76,0-3.18,1.42-3.18,3.18c0,1.76,1.42,3.18,3.18,3.18h24.24c17.26,0,31.3-14.04,31.3-31.3
		c0-12.42-7.27-23.17-17.78-28.23c-0.03-0.02-0.05-0.04-0.08-0.05c-0.41-0.2-0.83-0.38-1.25-0.55c0,0-0.01,0-0.01-0.01
		c-0.41-0.17-0.83-0.34-1.25-0.49c-0.08-0.03-0.16-0.06-0.25-0.09c-0.4-0.14-0.8-0.28-1.2-0.41c-0.1-0.03-0.21-0.07-0.31-0.1
		c-0.4-0.12-0.79-0.23-1.19-0.34c-0.12-0.03-0.23-0.06-0.35-0.09c-0.39-0.1-0.79-0.19-1.18-0.27c-0.14-0.03-0.28-0.05-0.42-0.08
		c-0.38-0.07-0.76-0.14-1.14-0.2c-0.18-0.03-0.36-0.05-0.54-0.08c-0.35-0.05-0.69-0.1-1.04-0.13c-0.27-0.03-0.53-0.04-0.8-0.07
		c-0.27-0.02-0.55-0.05-0.82-0.06c-0.55-0.03-1.11-0.05-1.67-0.05c-0.24,0-0.49,0-0.73,0.01c-2.22-10.56-7.86-20.17-16.07-27.31
		c-9.05-7.87-20.66-12.21-32.67-12.21c-11.98,0-23.56,4.32-32.6,12.15c-8.25,7.15-13.92,16.8-16.15,27.39
		c-0.22,0.01-0.43,0.03-0.64,0.04c-0.17,0.01-0.34,0.02-0.51,0.04c-0.67,0.05-1.34,0.13-2,0.22c-0.13,0.02-0.25,0.04-0.38,0.06
		c-0.54,0.09-1.08,0.19-1.62,0.3c-0.21,0.05-0.42,0.09-0.63,0.14c-0.6,0.14-1.19,0.3-1.78,0.47c-0.23,0.07-0.46,0.15-0.69,0.22
		c-0.39,0.13-0.78,0.26-1.17,0.41c-0.27,0.1-0.54,0.2-0.81,0.31c-0.51,0.2-1.01,0.42-1.5,0.65c-0.3,0.14-0.6,0.29-0.9,0.44
		c-0.27,0.14-0.55,0.28-0.82,0.43c-0.49,0.26-0.97,0.54-1.45,0.83c-0.25,0.15-0.5,0.31-0.75,0.47c-0.15,0.1-0.3,0.18-0.45,0.28
		c-0.06,0.04-0.11,0.1-0.17,0.14c-8.22,5.65-13.63,15.11-13.63,25.81C37.78,98.69,51.83,112.73,69.08,112.73z"/>
</g>
</svg>
